PathFileType	4	(X/Y/Z)	 2.2Hz3min.trc
DataRate	CameraRate	NumFrames	NumMarkers	Units	OrigDataRate	OrigDataStartFrame	OrigNumFrames
200	200	10	39	m	200	376	1000
Frame#	Time	C7			LSH			RSH			MAN			RASI			LASI			HIPR			HIPL			RPSI			LPSI			COX			RTHI1			RTHI2			RTHI3			RTHI4			RLKN			RMKN			RSHA1			RSHA2			RSHA3			RSHA4			RHEEL			RMET5			RMET1			RTOE			LTHI1			LTHI2			LTHI3			LTHI4			LLKN			LMKN			LSHA1			LSHA2			LSHA3			LSHA4			LHEEL			LMET5			LMET1			LTOE			
		X1	Y1	Z1	X2	Y2	Z2	X3	Y3	Z3	X4	Y4	Z4	X5	Y5	Z5	X6	Y6	Z6	X7	Y7	Z7	X8	Y8	Z8	X9	Y9	Z9	X10	Y10	Z10	X11	Y11	Z11	X12	Y12	Z12	X13	Y13	Z13	X14	Y14	Z14	X15	Y15	Z15	X16	Y16	Z16	X17	Y17	Z17	X18	Y18	Z18	X19	Y19	Z19	X20	Y20	Z20	X21	Y21	Z21	X22	Y22	Z22	X23	Y23	Z23	X24	Y24	Z24	X25	Y25	Z25	X26	Y26	Z26	X27	Y27	Z27	X28	Y28	Z28	X29	Y29	Z29	X30	Y30	Z30	X31	Y31	Z31	X32	Y32	Z32	X33	Y33	Z33	X34	Y34	Z34	X35	Y35	Z35	X36	Y36	Z36	X37	Y37	Z37	X38	Y38	Z38	X39	Y39	Z39	
376	1.8800	-0.300416	1.602676	-0.572493	-0.250964	1.564756	-0.811700	-0.254744	1.563631	-0.361865	-0.163578	1.529166	-0.579077	-0.180110	1.075494	-0.462613	-0.172544	1.083636	-0.696971	-0.248275	1.132394	-0.416717	-0.239361	1.146572	-0.742935	-0.358906	1.107705	-0.525702	-0.354143	1.113297	-0.637564	-0.364780	1.107365	-0.582949	-0.251827	0.841660	-0.378745	-0.235455	0.785308	-0.366393	-0.172187	0.801389	-0.363681	-0.181336	0.860762	-0.378188	-0.191406	0.493396	-0.380446	-0.164377	0.483357	-0.482765	-0.287821	0.377732	-0.350894	-0.311051	0.341723	-0.357989	-0.239217	0.353438	-0.368222	-0.257051	0.317627	-0.371936	-0.450900	0.066731	-0.448242	-0.278609	0.023727	-0.362029	-0.232882	0.043615	-0.453699	-0.196969	0.030980	-0.448465	-0.232615	0.819992	-0.784749	-0.211630	0.763784	-0.795523	-0.149145	0.781672	-0.798946	-0.162148	0.839752	-0.789977	-0.163880	0.500210	-0.774699	-0.133670	0.487777	-0.679977	-0.312494	0.370265	-0.786238	-0.328185	0.333081	-0.781271	-0.271663	0.313426	-0.800015	-0.262815	0.356602	-0.802794	-0.430600	0.063482	-0.726574	-0.257889	0.027258	-0.804927	-0.211286	0.042121	-0.719054	-0.170251	0.031166	-0.729373	
377	1.8850	-0.300851	1.598499	-0.572503	-0.251557	1.559407	-0.811840	-0.255399	1.558613	-0.361693	-0.163423	1.524279	-0.578996	-0.181743	1.070826	-0.462527	-0.174049	1.078730	-0.696667	-0.250061	1.127072	-0.416492	-0.240541	1.140934	-0.743153	-0.360676	1.102927	-0.525824	-0.355753	1.108767	-0.637443	-0.366403	1.102548	-0.583021	-0.252352	0.837379	-0.378807	-0.235657	0.781257	-0.366505	-0.172550	0.797700	-0.363669	-0.182057	0.857028	-0.378236	-0.189598	0.489718	-0.380847	-0.163267	0.479676	-0.483697	-0.286159	0.374267	-0.351495	-0.309451	0.338325	-0.358662	-0.237662	0.350022	-0.369200	-0.255550	0.314247	-0.373053	-0.451659	0.064531	-0.449378	-0.279030	0.023880	-0.362237	-0.233132	0.043464	-0.454055	-0.197182	0.030813	-0.448590	-0.232789	0.815548	-0.784717	-0.211562	0.759429	-0.795462	-0.149163	0.777597	-0.798992	-0.162419	0.835633	-0.790075	-0.161951	0.496673	-0.774516	-0.131804	0.484055	-0.679257	-0.310533	0.367418	-0.786147	-0.326493	0.330364	-0.781234	-0.269964	0.310294	-0.799513	-0.260833	0.353424	-0.802365	-0.431229	0.061954	-0.726013	-0.258208	0.027279	-0.804845	-0.211624	0.041988	-0.718564	-0.170340	0.030874	-0.728939	
378	1.8900	-0.301232	1.594548	-0.572483	-0.252232	1.554335	-0.811971	-0.256110	1.553885	-0.361584	-0.163169	1.519576	-0.578914	-0.183558	1.066328	-0.462466	-0.175784	1.073923	-0.696363	-0.252056	1.121853	-0.416272	-0.241890	1.135349	-0.743355	-0.362610	1.098421	-0.525958	-0.357543	1.104594	-0.637271	-0.368195	1.098028	-0.583081	-0.252672	0.833374	-0.378938	-0.235638	0.777510	-0.366606	-0.172704	0.794422	-0.363752	-0.182663	0.853673	-0.378312	-0.187156	0.486522	-0.381336	-0.161613	0.476481	-0.484737	-0.284047	0.371404	-0.352169	-0.307408	0.335537	-0.359396	-0.235655	0.347188	-0.370191	-0.253604	0.311448	-0.374149	-0.452082	0.063143	-0.450389	-0.279351	0.024040	-0.362429	-0.233226	0.043337	-0.454339	-0.197256	0.030648	-0.448714	-0.232697	0.811416	-0.784629	-0.211160	0.755408	-0.795309	-0.148865	0.773920	-0.798923	-0.162448	0.831895	-0.790085	-0.159099	0.493705	-0.774206	-0.129263	0.481045	-0.678345	-0.307801	0.365371	-0.786099	-0.324100	0.328501	-0.781252	-0.267578	0.307894	-0.798975	-0.258081	0.350964	-0.801904	-0.431378	0.061348	-0.725531	-0.258368	0.027325	-0.804751	-0.211662	0.041864	-0.718168	-0.170177	0.030501	-0.728502	
379	1.8950	-0.301537	1.590884	-0.572427	-0.252990	1.549609	-0.812092	-0.256864	1.549457	-0.361502	-0.162856	1.515146	-0.578822	-0.185538	1.062079	-0.462421	-0.177717	1.069281	-0.696096	-0.254272	1.116820	-0.416104	-0.243465	1.129899	-0.743531	-0.364659	1.094270	-0.526111	-0.359473	1.100852	-0.637046	-0.370124	1.093865	-0.583118	-0.252736	0.829727	-0.379085	-0.235331	0.774119	-0.366738	-0.172594	0.791635	-0.363932	-0.183104	0.850763	-0.378426	-0.184003	0.483894	-0.381916	-0.159315	0.473906	-0.485807	-0.281478	0.369270	-0.352849	-0.304948	0.333493	-0.360105	-0.233208	0.344996	-0.371106	-0.251256	0.309300	-0.375122	-0.452101	0.062538	-0.451238	-0.279501	0.024178	-0.362569	-0.233089	0.043238	-0.454538	-0.197090	0.030488	-0.448853	-0.232262	0.807701	-0.784521	-0.210320	0.751838	-0.795089	-0.148161	0.770778	-0.798679	-0.162166	0.828663	-0.789949	-0.155232	0.491394	-0.773728	-0.125987	0.478876	-0.677330	-0.304346	0.364200	-0.786096	-0.321011	0.327557	-0.781327	-0.264512	0.306361	-0.798481	-0.254612	0.349350	-0.801485	-0.431004	0.061531	-0.725113	-0.258312	0.027362	-0.804724	-0.211309	0.041758	-0.717934	-0.169672	0.030078	-0.728104	
380	1.9000	-0.301742	1.587543	-0.572342	-0.253795	1.545273	-0.812166	-0.257654	1.545403	-0.361414	-0.162553	1.511082	-0.578710	-0.187634	1.058162	-0.462370	-0.179795	1.064870	-0.695920	-0.256736	1.112064	-0.416007	-0.245357	1.124748	-0.743672	-0.366760	1.090526	-0.526290	-0.361487	1.097572	-0.636770	-0.372136	1.090118	-0.583130	-0.252527	0.826450	-0.379316	-0.234695	0.771116	-0.366883	-0.172190	0.789335	-0.364228	-0.183347	0.848327	-0.378595	-0.180171	0.481835	-0.382559	-0.156323	0.472032	-0.486811	-0.278501	0.367870	-0.353466	-0.302154	0.332219	-0.360730	-0.230394	0.343399	-0.371891	-0.248617	0.307791	-0.375899	-0.451714	0.062582	-0.451939	-0.279454	0.024268	-0.362620	-0.232681	0.043170	-0.454638	-0.196625	0.030344	-0.448986	-0.231466	0.804479	-0.784444	-0.208993	0.748812	-0.794856	-0.147002	0.768287	-0.798213	-0.161550	0.826045	-0.789603	-0.150429	0.489744	-0.773084	-0.122061	0.477565	-0.676329	-0.300349	0.363789	-0.786144	-0.317360	0.327379	-0.781464	-0.260883	0.305630	-0.798074	-0.250606	0.348546	-0.801142	-0.430177	0.062312	-0.724726	-0.258057	0.027386	-0.804767	-0.210606	0.041676	-0.717870	-0.168859	0.029633	-0.727851	
381	1.9050	-0.301844	1.584531	-0.572239	-0.254618	1.541375	-0.812182	-0.258428	1.541738	-0.361308	-0.162330	1.507448	-0.578571	-0.189778	1.054654	-0.462285	-0.181955	1.060771	-0.695891	-0.259440	1.107681	-0.415990	-0.247617	1.120013	-0.743779	-0.368834	1.087218	-0.526496	-0.363520	1.094711	-0.636465	-0.374173	1.086788	-0.583137	-0.252196	0.823627	-0.379402	-0.233749	0.768503	-0.367023	-0.171501	0.787505	-0.364652	-0.183378	0.846333	-0.378822	-0.175817	0.480262	-0.383241	-0.152700	0.470845	-0.487665	-0.275213	0.367105	-0.353990	-0.299149	0.331646	-0.361228	-0.227336	0.342280	-0.372522	-0.245831	0.306815	-0.376489	-0.451001	0.063096	-0.452525	-0.279238	0.024314	-0.362600	-0.232057	0.043126	-0.454660	-0.195925	0.030224	-0.449092	-0.230355	0.801783	-0.784467	-0.207201	0.746380	-0.794687	-0.145423	0.766497	-0.797515	-0.160656	0.824089	-0.789012	-0.144965	0.488640	-0.772292	-0.117624	0.477018	-0.675427	-0.296081	0.363934	-0.786261	-0.313397	0.327732	-0.781644	-0.256936	0.305508	-0.797732	-0.246323	0.348343	-0.800861	-0.429030	0.063448	-0.724322	-0.257646	0.027408	-0.804834	-0.209671	0.041621	-0.717899	-0.167825	0.029261	-0.727719	
382	1.9100	-0.301883	1.581853	-0.572145	-0.255422	1.537943	-0.812125	-0.259159	1.538477	-0.361179	-0.162250	1.504276	-0.578402	-0.191887	1.051613	-0.462149	-0.184123	1.057063	-0.696061	-0.262329	1.103781	-0.416041	-0.250288	1.115815	-0.743840	-0.370815	1.084325	-0.526725	-0.365516	1.092164	-0.636168	-0.376177	1.083851	-0.583138	-0.251704	0.821160	-0.379361	-0.232552	0.766243	-0.367087	-0.170556	0.786068	-0.365142	-0.183217	0.844715	-0.379121	-0.171146	0.479082	-0.383900	-0.148633	0.470201	-0.488294	-0.271737	0.366837	-0.354387	-0.296066	0.331637	-0.361590	-0.224177	0.341506	-0.373029	-0.243053	0.306254	-0.376924	-0.450106	0.063864	-0.453046	-0.278908	0.024334	-0.362550	-0.231316	0.043100	-0.454638	-0.195081	0.030143	-0.449187	-0.229042	0.799580	-0.784640	-0.205054	0.744517	-0.794658	-0.143538	0.765410	-0.796640	-0.159610	0.822768	-0.788208	-0.139201	0.487918	-0.771401	-0.112922	0.477037	-0.674706	-0.291846	0.364391	-0.786409	-0.309422	0.328369	-0.781825	-0.252965	0.305731	-0.797397	-0.242067	0.348489	-0.800601	-0.427743	0.064715	-0.723873	-0.257151	0.027434	-0.804890	-0.208637	0.041582	-0.717964	-0.166685	0.028985	-0.727594	
383	1.9150	-0.301907	1.579476	-0.572073	-0.256148	1.534988	-0.811992	-0.259800	1.535620	-0.361042	-0.162351	1.501550	-0.578212	-0.193864	1.049074	-0.461957	-0.186223	1.053848	-0.696459	-0.265309	1.100459	-0.416157	-0.253322	1.112275	-0.743877	-0.372650	1.081785	-0.526967	-0.367416	1.089830	-0.635890	-0.378059	1.081240	-0.583135	-0.251112	0.819001	-0.379211	-0.231244	0.764304	-0.367059	-0.169479	0.784933	-0.365643	-0.182938	0.843392	-0.379480	-0.166388	0.478166	-0.384491	-0.144359	0.469914	-0.488631	-0.268240	0.366904	-0.354660	-0.293039	0.332014	-0.361810	-0.221070	0.340960	-0.373452	-0.240403	0.305977	-0.377246	-0.449190	0.064699	-0.453527	-0.278536	0.024344	-0.362503	-0.230570	0.043088	-0.454599	-0.194220	0.030096	-0.449266	-0.227687	0.797789	-0.784970	-0.202733	0.743137	-0.794811	-0.141538	0.764921	-0.795683	-0.158576	0.821989	-0.787278	-0.133552	0.487419	-0.770490	-0.108254	0.477383	-0.674231	-0.287927	0.364930	-0.786540	-0.305716	0.329048	-0.781952	-0.249255	0.306070	-0.797040	-0.238128	0.348753	-0.800332	-0.426499	0.065913	-0.723326	-0.256666	0.027466	-0.804905	-0.207635	0.041557	-0.718042	-0.165561	0.028808	-0.727543	
384	1.9200	-0.301972	1.577356	-0.572023	-0.256747	1.532503	-0.811792	-0.260318	1.533185	-0.360921	-0.162625	1.499213	-0.578016	-0.195628	1.047029	-0.461722	-0.188191	1.051182	-0.697087	-0.268272	1.097722	-0.416272	-0.256592	1.109467	-0.743909	-0.374306	1.079523	-0.527209	-0.369169	1.087633	-0.635631	-0.379755	1.078921	-0.583135	-0.250511	0.817103	-0.378976	-0.229954	0.762636	-0.366868	-0.168400	0.783988	-0.366088	-0.182628	0.842267	-0.379855	-0.161856	0.477382	-0.384954	-0.140153	0.469785	-0.488655	-0.264901	0.367124	-0.354823	-0.290200	0.332584	-0.361890	-0.218162	0.340549	-0.373806	-0.237990	0.305854	-0.377480	-0.448388	0.065456	-0.453943	-0.278214	0.024354	-0.362468	-0.229926	0.043081	-0.454558	-0.193472	0.030079	-0.449312	-0.226454	0.796314	-0.785432	-0.200454	0.742128	-0.795151	-0.139628	0.764875	-0.794793	-0.157711	0.821617	-0.786359	-0.128427	0.486994	-0.769658	-0.103924	0.477844	-0.674046	-0.284544	0.365394	-0.786595	-0.302517	0.329613	-0.781990	-0.246062	0.306345	-0.796672	-0.234737	0.348966	-0.800045	-0.425432	0.066887	-0.722685	-0.256266	0.027512	-0.804854	-0.206784	0.041545	-0.718091	-0.164583	0.028727	-0.727580	
385	1.9250	-0.302133	1.575459	-0.571982	-0.257192	1.530472	-0.811559	-0.260684	1.531155	-0.360833	-0.163034	1.497190	-0.577840	-0.197115	1.045438	-0.461475	-0.189967	1.049093	-0.697910	-0.271040	1.095581	-0.416366	-0.259928	1.107390	-0.743953	-0.375748	1.077498	-0.527433	-0.370735	1.085553	-0.635376	-0.381218	1.076857	-0.583135	-0.249981	0.815447	-0.378666	-0.228818	0.761205	-0.366541	-0.167442	0.783181	-0.366399	-0.182363	0.841277	-0.380180	-0.157778	0.476657	-0.385278	-0.136288	0.469652	-0.488393	-0.261893	0.367369	-0.354877	-0.287668	0.333174	-0.361837	-0.215589	0.340210	-0.374078	-0.235880	0.305780	-0.377639	-0.447782	0.066026	-0.454261	-0.277984	0.024368	-0.362457	-0.229458	0.043074	-0.454528	-0.192927	0.030077	-0.449335	-0.225472	0.795075	-0.785974	-0.198434	0.741382	-0.795642	-0.138002	0.765095	-0.794115	-0.157132	0.821495	-0.785606	-0.124162	0.486550	-0.768989	-0.100155	0.478234	-0.674141	-0.281837	0.365701	-0.786536	-0.299975	0.330014	-0.781903	-0.243563	0.306484	-0.796327	-0.232043	0.349039	-0.799755	-0.424611	0.067531	-0.721989	-0.255976	0.027566	-0.804757	-0.206127	0.041536	-0.718098	-0.163791	0.028731	-0.727632	
